<svg xmlns="http://www.w3.org/2000/svg" viewBox="0 0 1440 900" preserveAspectRatio="xMidYMax slice">
  <defs>
    <linearGradient id="sky" x1="0" y1="0" x2="0" y2="1">
      <stop offset="0%" stop-color="#acccf6"/><stop offset="28%" stop-color="#c8d7f2"/>
      <stop offset="50%" stop-color="#f2dabb"/><stop offset="66%" stop-color="#ffe7b2"/>
      <stop offset="100%" stop-color="#fff4d4"/>
    </linearGradient>
    <radialGradient id="sun" cx="50%" cy="63%" r="45%">
      <stop offset="0%" stop-color="#fffef7"/><stop offset="16%" stop-color="#fff1c6"/>
      <stop offset="46%" stop-color="#ffdb8e" stop-opacity=".65"/><stop offset="100%" stop-color="#ffdb8e" stop-opacity="0"/>
    </radialGradient>
  </defs>
  <rect width="1440" height="900" fill="url(#sky)"/>
  <circle cx="720" cy="565" r="540" fill="url(#sun)"/>
  <circle cx="720" cy="565" r="44" fill="#fff9e6"/>
  <path d="M0 600 L180 522 L360 582 L560 500 L760 575 L980 505 L1200 585 L1440 520 L1440 900 L0 900 Z" fill="#bcc6e8" opacity=".42"/>
  <path d="M0 662 L220 602 L440 656 L680 586 L920 650 L1180 602 L1440 650 L1440 900 L0 900 Z" fill="#acb8dc" opacity=".5"/>
  <path d="M0 742 L260 692 L520 732 L820 682 L1120 726 L1440 692 L1440 900 L0 900 Z" fill="#c1d38f" opacity=".82"/>
  <path d="M0 802 L300 762 L620 796 L960 757 L1440 792 L1440 900 L0 900 Z" fill="#aac678"/>
</svg>
